<svg version="1.1" viewBox="0.0 0.0 719.0 50.0" fill="none" stroke="none" stroke-linecap="square" stroke-miterlimit="10" xmlns:xlink="http://www.w3.org/1999/xlink" xmlns="http://www.w3.org/2000/svg"><clipPath id="g3a441098b80_0_20.0"><path d="m0 0l719.0 0l0 50.0l-719.0 0l0 -50.0z" clip-rule="nonzero"/></clipPath><g clip-path="url(#g3a441098b80_0_20.0)"><path fill="#ffffff" d="m0 0l719.0 0l0 50.0l-719.0 0z" fill-rule="evenodd"/><path fill="#000000" fill-opacity="0.0" d="m12.586954 -2.4304462E-4l212.6929 0l0 73.07087l-212.6929 0z" fill-rule="evenodd"/><path fill="#000000" fill-opacity="0.0" d="m21.586954 8.631707l125.535164 0l0 35.28711l-125.535164 0l0 -35.28711z" fill-rule="nonzero"/><path fill="#000000" d="m38.47758 15.895379l0 3.687501l-10.562502 0l0 4.28125l9.687502 0l0 3.421875l-9.687502 0l0 4.906248l10.781252 0l0 3.6875l-15.187502 0l0 -19.984375l14.968752 0zm6.236328 5.500001l2.546875 3.796875l2.515625 -3.796875l4.40625 0l-4.765625 6.78125l5.359375 7.703123l-4.546875 0l-3.015625 -4.562498l-3.03125 4.562498l-4.453125 0l5.203125 -7.609373l-4.75 -6.875l4.53125 0zm19.726559 -0.375q3.078125 0 4.828125 2.15625q1.75 2.140625 1.75 5.625q0 3.203123 -1.734375 5.343748q-1.71875 2.125 -4.625 2.125q-1.3281212 0 -2.4843712 -0.5625q-1.140625 -0.5625 -1.859375 -1.625l-0.0625 0l0 6.890625l-3.96875 0l0 -19.578123l3.78125 0l0 1.84375l0.046875 0q0.71875 -1.125 1.8125 -1.671875q1.109375 -0.546875 2.5156212 -0.546875zm-4.328121 7.671875q0 2.078125 0.890625 3.343748q0.890625 1.25 2.578125 1.25q1.6562462 0 2.5468712 -1.203125q0.90625 -1.2031231 0.90625 -3.390623q0 -2.078125 -0.890625 -3.375q-0.890625 -1.3125 -2.6093712 -1.3125q-1.640625 0 -2.53125 1.234375q-0.890625 1.234375 -0.890625 3.453125zm19.962887 -7.671875q3.21875 0 5.140625 2.203125q1.921875 2.203125 1.921875 5.640625l-0.03125 0.734375l-10.453125 0q0.09375 1.875 0.984375 2.781248q0.890625 0.90625 2.5625 0.90625q1.078125 0 1.984375 -0.546875q0.921875 -0.5625 1.171875 -1.3437481l3.5 0q-0.8125 2.453123 -2.5 3.671873q-1.671875 1.203125 -4.28125 1.203125q-3.34375 0 -5.375 -2.109375q-2.015625 -2.125 -2.015625 -5.499998q0 -3.234375 2.0625 -5.4375q2.078125 -2.203125 5.328125 -2.203125zm-3.421875 6.0625l6.46875 0q-0.28125 -1.59375 -1.03125 -2.328125q-0.75 -0.75 -2.15625 -0.75q-1.4375 0 -2.296875 0.828125q-0.84375 0.8125 -0.984375 2.25zm21.25 -6.0625q0.265625 0 0.484375 0.03125q0.21875 0.03125 0.40625 0.109375l0 3.6875q-0.34375 -0.078125 -0.671875 -0.109375q-0.3125 -0.03125 -0.75 -0.03125q-2.015625 0 -2.984375 1.234375q-0.953125 1.234375 -0.953125 3.296875l0 6.640623l-3.96875 0l0 -14.484373l3.78125 0l0 2.703125l0.046875 0q0.625 -1.421875 1.875 -2.25q1.265625 -0.828125 2.734375 -0.828125zm7.5722656 -3.953125l0 4.328125l2.921875 0l0 2.671875l-2.921875 0l0 7.265625q0 0.8749981 0.328125 1.2343731q0.34375 0.34375 1.359375 0.34375q0.34375 0 0.65625 -0.015625q0.3125 -0.03125 0.578125 -0.09375l0 3.109375q-0.5 0.078125 -1.109375 0.109375q-0.609375 0.03125 -1.1875 0.03125q-2.59375 0 -3.59375 -0.875q-1.0 -0.890625 -1.0 -2.484375l0 -8.624998l-2.40625 0l0 -2.671875l2.40625 0l0 -4.328125l3.96875 0zm8.919922 -1.171876l0 3.265626l-3.984375 0l0 -3.265626l3.984375 0zm0 5.500001l0 14.484373l-3.984375 0l0 -14.484373l3.984375 0zm9.0625 -0.375q2.953125 0 4.5625076 1.171875q1.609375 1.15625 1.828125 3.4375l-3.7968826 0q-0.078125 -1.03125 -0.765625 -1.484375q-0.6875 -0.46875 -1.953125 -0.46875q-1.140625 0 -1.671875 0.34375q-0.53125 0.328125 -0.53125 0.984375q0 0.671875 0.6875 1.109375q0.703125 0.421875 2.78125 0.828125q3.34375 0.640625 4.4843826 1.65625q1.140625 1.0 1.140625 2.640625q0 2.468748 -1.796875 3.749998q-1.7968826 1.28125 -4.8125076 1.28125q-3.0 0 -4.84375 -1.265625q-1.828125 -1.28125 -1.953125 -3.828123l3.78125 0q0 1.1406231 0.859375 1.7968731q0.875 0.640625 2.1875 0.640625q1.171875 0 1.890625 -0.5q0.71875 -0.5 0.71875 -1.3437481q0 -0.765625 -0.9375 -1.234375q-0.9375 -0.484375 -3.453125 -1.0q-2.5 -0.5 -3.609375 -1.40625q-1.09375 -0.921875 -1.09375 -2.484375q0 -2.296875 1.625 -3.453125q1.625 -1.171875 4.671875 -1.171875zm15.78907 0q3.21875 0 5.140625 2.203125q1.921875 2.203125 1.921875 5.640625l-0.03125 0.734375l-10.453125 0q0.09375 1.875 0.984375 2.781248q0.890625 0.90625 2.5625 0.90625q1.078125 0 1.984375 -0.546875q0.921875 -0.5625 1.171875 -1.3437481l3.5 0q-0.8125 2.453123 -2.5 3.671873q-1.671875 1.203125 -4.28125 1.203125q-3.34375 0 -5.375 -2.109375q-2.015625 -2.125 -2.015625 -5.499998q0 -3.234375 2.0625 -5.4375q2.078125 -2.203125 5.328125 -2.203125zm-3.421875 6.0625l6.46875 0q-0.28125 -1.59375 -1.03125 -2.328125q-0.75 -0.75 -2.15625 -0.75q-1.4375 0 -2.296875 0.828125q-0.84375 0.8125 -0.984375 2.25z" fill-rule="nonzero"/><path fill="#000000" fill-opacity="0.0" d="m147.12212 8.631707l7.779297 0l0 35.28711l-7.779297 0l0 -35.28711z" fill-rule="nonzero"/><path fill="#000000" fill-opacity="0.0" d="m154.90141 8.631707l0 0l0 35.28711l0 0l0 -35.28711z" fill-rule="nonzero"/><path fill="#000000" d="m21.586954 37.699753l125.535164 0l0 2.5200005l-125.535164 0l0 -2.5200005z" fill-rule="nonzero"/></g></svg>